<svg xmlns="http://www.w3.org/2000/svg" xml:space="preserve" width="0.999992in" height="0.999992in" version="1.1" style="shape-rendering:geometricPrecision; text-rendering:geometricPrecision; image-rendering:optimizeQuality; fill-rule:evenodd; clip-rule:evenodd" viewBox="0 0 1000 1000" xmlns:xlink="http://www.w3.org/1999/xlink">
 <defs>
  <style type="text/css">
   
    .fil0 {fill:black;fill-rule:nonzero}
   
  </style>
 </defs>
 <g id="Layer_x0020_1">
  <metadata id="CorelCorpID_0Corel-Layer"></metadata>
  <path class="fil0" d="M209 0l582 0c29,0 55,12 73,30l0 0c19,19 31,45 31,74l0 740 0 30 -31 0 -728 0 -31 0 0 -30 0 -740c0,-29 12,-55 31,-74l0 0c18,-18 44,-30 73,-30zm582 61l-582 0c-12,0 -23,5 -30,13l0 0c-8,7 -13,18 -13,30l0 709 668 0 0 -709c0,-12 -5,-23 -13,-30l0 0c-7,-8 -18,-13 -30,-13z" id="id_131" style="fill: rgb(108, 61, 183);"></path>
  <path class="fil0" d="M895 844l0 52c0,29 -12,55 -31,74l0 -1c-18,19 -44,31 -73,31l-582 0c-29,0 -55,-12 -73,-31l0 1c-19,-19 -31,-45 -31,-74l0 -52 0 -31 31 0 728 0 31 0 0 31zm-61 52l0 -22 -668 0 0 22c0,12 5,23 13,30l0 0c7,8 18,13 30,13l582 0c12,0 23,-5 30,-13l0 0c8,-7 13,-18 13,-30z" id="id_132" style="fill: rgb(108, 61, 183);"></path>
  <path class="fil0" d="M500 175c72,0 138,29 186,77 47,47 76,113 76,185 0,73 -29,138 -76,186 -48,47 -114,77 -186,77 -72,0 -138,-30 -186,-77 -47,-48 -76,-113 -76,-186 0,-72 29,-138 76,-185 48,-48 114,-77 186,-77zm144 118c-37,-37 -88,-60 -144,-60 -56,0 -107,23 -144,60 -37,37 -60,88 -60,144 0,56 23,107 60,144 37,37 88,60 144,60 56,0 107,-23 144,-60 37,-37 60,-88 60,-144 0,-56 -23,-107 -60,-144z" id="id_133" style="fill: rgb(108, 61, 183);"></path>
  <path class="fil0" d="M500 175c38,0 70,33 91,87 17,45 28,107 28,175 0,68 -11,130 -28,175 -21,54 -53,88 -91,88 -38,0 -70,-34 -91,-88 -17,-45 -28,-107 -28,-175 0,-68 11,-130 28,-175 21,-54 53,-87 91,-87zm36 108c-12,-31 -25,-50 -36,-50 -11,0 -24,19 -36,50 -15,39 -24,93 -24,154 0,61 9,116 24,155 12,30 25,49 36,49 11,0 24,-19 36,-49 15,-39 24,-94 24,-155 0,-61 -9,-115 -24,-154z" id="id_134" style="fill: rgb(60, 19, 117);"></path>
  <path class="fil0" d="M267 466c-16,0 -29,-13 -29,-29 0,-16 13,-29 29,-29l466 0c16,0 29,13 29,29 0,16 -13,29 -29,29l-466 0z" id="id_135" style="fill: rgb(108, 61, 183);"></path>
 </g>
</svg>