<svg xmlns="http://www.w3.org/2000/svg" viewBox="0 0 64 64"><g id="Outline_ok" data-name="Outline ok"><path d="M62,63H2a1,1,0,0,1-1-1V27a1,1,0,0,1,.359-.769l6-5a1,1,0,1,1,1.282,1.538L3,27.469V61H61V27.469l-5.641-4.7a1,1,0,1,1,1.282-1.538l6,5A1,1,0,0,1,63,27V62A1,1,0,0,1,62,63Z" style="fill: rgb(133, 79, 186);" id="id_114"></path><path d="M32,47a1.007,1.007,0,0,1-.524-.148l-26-16a1,1,0,0,1,1.048-1.7L32,44.826,57.476,29.148a1,1,0,1,1,1.048,1.7l-26,16A1.007,1.007,0,0,1,32,47Z" style="fill: rgb(124, 21, 214);" id="id_115"></path><path d="M6,59a1,1,0,0,1-.608-1.794l17-13a1,1,0,0,1,1.214,1.588l-17,13A.991.991,0,0,1,6,59Z" style="fill: rgb(136, 41, 219);" id="id_116"></path><path d="M58,59a.991.991,0,0,1-.606-.206l-17-13a1,1,0,1,1,1.214-1.588l17,13A1,1,0,0,1,58,59Z" style="fill: rgb(142, 33, 237);" id="id_117"></path><path d="M8,32a1,1,0,0,1-1-1V2A1,1,0,0,1,8,1H47a1,1,0,0,1,0,2H9V31A1,1,0,0,1,8,32Z" style="fill: rgb(77, 18, 128);" id="id_118"></path><path d="M56,32a1,1,0,0,1-1-1V11a1,1,0,0,1,2,0V31A1,1,0,0,1,56,32Z" style="fill: rgb(75, 8, 133);" id="id_119"></path><path d="M56,12H47a1,1,0,0,1-1-1V2a1,1,0,0,1,1.707-.707l9,9A1,1,0,0,1,56,12Zm-8-2h5.586L48,4.414Z" style="fill: rgb(117, 37, 186);" id="id_120"></path><path d="M48,27H16a1,1,0,0,1,0-2H48a1,1,0,0,1,0,2Z" style="fill: rgb(107, 40, 166);" id="id_121"></path><path d="M48,32H16a1,1,0,0,1,0-2H48a1,1,0,0,1,0,2Z" style="fill: rgb(140, 52, 217);" id="id_122"></path><path d="M39,37H25a1,1,0,0,1,0-2H39a1,1,0,0,1,0,2Z" style="fill: rgb(132, 60, 194);" id="id_123"></path><path d="M32,22a1,1,0,0,1-1-1V19a1,1,0,0,1,2,0v2A1,1,0,0,1,32,22Z" style="fill: rgb(129, 61, 189);" id="id_124"></path><path d="M32,10a1,1,0,0,1-1-1V7a1,1,0,0,1,2,0V9A1,1,0,0,1,32,10Z" style="fill: rgb(105, 46, 156);" id="id_125"></path><path d="M31.937,20a3.81,3.81,0,0,1-3.651-2.166,1,1,0,1,1,1.84-.785A1.986,1.986,0,0,0,31.985,18c.787-.009,2.026-.4,2.015-1.406-.009-.84-.548-1.13-2.276-1.633-1.564-.455-3.7-1.075-3.724-3.534C27.977,9.245,30.034,8.033,31.983,8a3.862,3.862,0,0,1,3.74,2.166,1,1,0,1,1-1.84.785A1.941,1.941,0,0,0,32.015,10c-.784.013-2.026.406-2.015,1.406.009.84.548,1.13,2.276,1.633,1.564.455,3.7,1.075,3.724,3.534.023,2.2-2.037,3.406-3.989,3.427Z" style="fill: rgb(255, 0, 0);" id="id_126"></path></g></svg>